<svg xmlns="http://www.w3.org/2000/svg" version="1.1" xmlns:xlink="http://www.w3.org/1999/xlink" xmlns:svgjs="http://svgjs.com/svgjs" width="172" height="152"><svg width="172" height="152" viewBox="0 0 172 152" fill="none" xmlns="http://www.w3.org/2000/svg">
<g clip-path="url(#clip0_1_2)">
<path d="M60.89 82.97H98.02V45.25C78.03 46.78 62.12 62.89 60.89 82.97ZM89.59 69.32H84.62V74.29C84.62 75.13 83.94 75.81 83.1 75.81C82.26 75.81 81.58 75.13 81.58 74.29V69.32H76.61C75.77 69.32 75.09 68.64 75.09 67.8C75.09 66.96 75.77 66.28 76.61 66.28H81.59V61.31C81.59 60.47 82.27 59.79 83.11 59.79C83.95 59.79 84.63 60.47 84.63 61.31V66.28H89.59C90.43 66.28 91.11 66.96 91.11 67.8C91.11 68.64 90.43 69.32 89.59 69.32Z" fill="#E5861F"></path>
<path d="M104.27 45.25V82.97H141.4C140.18 62.89 124.27 46.78 104.27 45.25ZM125.57 69.32H112.59C111.75 69.32 111.07 68.64 111.07 67.8C111.07 66.96 111.75 66.28 112.59 66.28H125.57C126.41 66.28 127.09 66.96 127.09 67.8C127.09 68.64 126.41 69.32 125.57 69.32Z" fill="#00AEEF"></path>
<path d="M60.99 89.22C62.79 108.71 78.45 124.19 98.03 125.69V89.22H60.99ZM89.2 108.03C89.79 108.62 89.79 109.58 89.2 110.17C88.9 110.47 88.52 110.61 88.13 110.61C87.74 110.61 87.35 110.46 87.06 110.17L83.11 106.22L79.16 110.17C78.86 110.47 78.48 110.61 78.09 110.61C77.7 110.61 77.31 110.46 77.02 110.17C76.43 109.58 76.43 108.62 77.02 108.03L80.97 104.08L77.02 100.13C76.43 99.54 76.43 98.58 77.02 97.99C77.61 97.4 78.57 97.4 79.16 97.99L83.11 101.94L87.06 97.99C87.65 97.4 88.61 97.4 89.2 97.99C89.79 98.58 89.79 99.54 89.2 100.13L85.25 104.08L89.2 108.03Z" fill="#00AEEF"></path>
<path d="M104.27 89.22V125.69C123.85 124.19 139.51 108.71 141.31 89.22H104.27ZM125.57 108.62H112.59C111.75 108.62 111.07 107.94 111.07 107.1C111.07 106.26 111.75 105.58 112.59 105.58H125.57C126.41 105.58 127.09 106.26 127.09 107.1C127.09 107.94 126.41 108.62 125.57 108.62ZM125.57 102.56H112.59C111.75 102.56 111.07 101.88 111.07 101.04C111.07 100.2 111.75 99.52 112.59 99.52H125.57C126.41 99.52 127.09 100.2 127.09 101.04C127.09 101.88 126.41 102.56 125.57 102.56Z" fill="#E5861F"></path>
<path d="M172.09 151.83H97.96C61.39 151.83 31.63 122.08 31.63 85.5C31.63 48.92 61.39 19.18 97.96 19.18H172.09V151.83ZM142.36 142.09H162.36V28.92H97.96C66.76 28.92 41.37 54.31 41.37 85.51C41.37 116.71 66.76 142.1 97.96 142.1H142.36V142.09Z" fill="#00AEEF"></path>
<path d="M55.08 142.44H9.73V28.92H54.61C58.34 26.05 62.36 23.56 66.63 21.46C66.99 21.28 67.34 21.11 67.7 20.94C69.02 20.32 70.35 19.72 71.72 19.18H60.59V-0.179993H19.12V19.18H0V152.17H72.67C66.32 149.76 60.41 146.47 55.08 142.44ZM26.9 7.60999H52.79V19.18H26.9V7.60999Z" fill="#E5861F"></path>
</g>
<defs>
<clipPath id="SvgjsClipPath1000">
<rect width="1000" height="750" fill="white" transform="translate(-233 -464)"></rect>
</clipPath>
</defs>
</svg><style>@media (prefers-color-scheme: light) { :root { filter: none; } }
</style></svg>