<svg version="1.1" id="Layer_1" xmlns="http://www.w3.org/2000/svg" xmlns:xlink="http://www.w3.org/1999/xlink" x="0px" y="0px" style="enable-background:new 0 0 1000 750;" xml:space="preserve" viewBox="177.38 298.82 645.22 152.38">
<style type="text/css">
	.st0{fill:#E5861F;}
	.st1{fill:#00AEEF;}
</style>
<g>
	<path class="st0" d="M238.3,381.97h37.13v-37.72C255.44,345.78,239.53,361.89,238.3,381.97z M267,368.32h-4.97v4.97   c0,0.84-0.68,1.52-1.52,1.52c-0.84,0-1.52-0.68-1.52-1.52v-4.97h-4.97c-0.84,0-1.52-0.68-1.52-1.52c0-0.84,0.68-1.52,1.52-1.52H259   v-4.97c0-0.84,0.68-1.52,1.52-1.52c0.84,0,1.52,0.68,1.52,1.52v4.97H267c0.84,0,1.52,0.68,1.52,1.52   C268.52,367.64,267.84,368.32,267,368.32z"/>
	<path class="st1" d="M281.68,344.25v37.72h37.13C317.59,361.89,301.68,345.78,281.68,344.25z M302.98,368.32h-12.98   c-0.84,0-1.52-0.68-1.52-1.52c0-0.84,0.68-1.52,1.52-1.52h12.98c0.84,0,1.52,0.68,1.52,1.52   C304.5,367.64,303.82,368.32,302.98,368.32z"/>
	<path class="st1" d="M238.4,388.22c1.8,19.49,17.46,34.97,37.04,36.47v-36.47H238.4z M266.61,407.03c0.59,0.59,0.59,1.55,0,2.14   c-0.3,0.3-0.68,0.44-1.07,0.44c-0.39,0-0.78-0.15-1.07-0.44l-3.95-3.95l-3.95,3.95c-0.3,0.3-0.68,0.44-1.07,0.44   c-0.39,0-0.78-0.15-1.07-0.44c-0.59-0.59-0.59-1.55,0-2.14l3.95-3.95l-3.95-3.95c-0.59-0.59-0.59-1.55,0-2.14   c0.59-0.59,1.55-0.59,2.14,0l3.95,3.95l3.95-3.95c0.59-0.59,1.55-0.59,2.14,0c0.59,0.59,0.59,1.55,0,2.14l-3.95,3.95L266.61,407.03   z"/>
	<path class="st0" d="M281.68,388.22v36.47c19.58-1.5,35.24-16.98,37.04-36.47H281.68z M302.98,407.62h-12.98   c-0.84,0-1.52-0.68-1.52-1.52c0-0.84,0.68-1.52,1.52-1.52h12.98c0.84,0,1.52,0.68,1.52,1.52   C304.5,406.94,303.82,407.62,302.98,407.62z M302.98,401.56h-12.98c-0.84,0-1.52-0.68-1.52-1.52s0.68-1.52,1.52-1.52h12.98   c0.84,0,1.52,0.68,1.52,1.52S303.82,401.56,302.98,401.56z"/>
	<path class="st1" d="M349.5,450.83h-74.13c-36.57,0-66.33-29.75-66.33-66.33s29.76-66.32,66.33-66.32h74.13V450.83z M319.77,441.09   h20V327.92h-64.4c-31.2,0-56.59,25.39-56.59,56.59c0,31.2,25.39,56.59,56.59,56.59H319.77z"/>
	<path class="st0" d="M232.49,441.44h-45.35V327.92h44.88l0,0c3.73-2.87,7.75-5.36,12.02-7.46c0.36-0.18,0.71-0.35,1.07-0.52   c1.32-0.62,2.65-1.22,4.02-1.76c0,0,0,0,0,0h-11.13v-19.36h-41.47v19.36h-19.12v132.99h72.67   C243.73,448.76,237.82,445.47,232.49,441.44z M204.31,306.61h25.89v11.57h-25.89V306.61z"/>
	<g>
		<g>
			<path class="st0" d="M369.92,348.28h10.2v73.35h-10.2V348.28z"/>
			<path class="st0" d="M394.68,363.16h9.16v6.87c1.46-3.02,5.51-7.59,13.32-7.59c6.24,0,11.65,3.02,14.57,9.36     c1.98-4.79,7.59-9.36,15.71-9.36c10.2,0,15.71,7.59,15.71,20.7v38.5h-9.78v-40.26c0-7.18-3.33-11.24-9.78-11.24     c-6.45,0-9.78,3.85-9.78,10.82v40.68h-9.78v-40.26c0-7.59-3.64-11.24-9.78-11.24c-6.35,0-9.88,3.75-9.88,10.82v40.68h-9.68     V363.16z"/>
			<path class="st0" d="M474.07,399.68v-14.57c0-14.98,7.7-22.79,18.94-22.79c8.95,0,14.25,5.2,15.92,8.95v-8.12h9.16v58.47h-9.16     v-8.01c-1.66,3.85-6.97,8.95-15.92,8.95C481.35,422.57,474.07,414.45,474.07,399.68z M496.12,414.45     c8.01,0,12.28-5.62,12.28-16.13v-12.38c0-10.2-4.58-15.5-12.28-15.5c-8.01,0-12.28,5.51-12.28,15.92v11.96     C483.85,408.94,488.01,414.45,496.12,414.45z"/>
			<path class="st0" d="M530.77,426.31h9.47c0,4.99,3.22,9.78,11.96,9.78c8.64,0,12.17-4.06,12.17-11.96v-10.51     c-1.66,3.95-6.45,8.95-15.4,8.95c-11.65,0-18.94-8.12-18.94-22.89v-14.57c0-14.25,7.07-22.47,18-22.47     c8.84,0,15.09,4.06,16.85,8.64v-8.12h9.16v58.99c0,14.05-4.89,21.64-21.85,21.64C535.14,443.79,530.77,435.26,530.77,426.31z      M552.09,414.87c7.7,0,12.28-5.2,12.28-15.61v-14.88c0-9.26-4.79-13.94-12.28-13.94c-8.01,0-12.28,5.51-12.28,15.92v12.38     C539.82,409.36,543.98,414.87,552.09,414.87z"/>
			<path class="st0" d="M586.01,399.68v-14.15c0-14.25,8.12-23.2,22.06-23.2c13.84,0,21.95,8.32,21.95,22.68v10.09h-34.33v6.55     c0,8.32,5.41,12.9,12.38,12.9c7.28,0,12.28-4.47,12.28-10.92v-0.94h9.68v0.42c0,10.72-8.12,19.56-21.95,19.56     C594.13,422.67,586.01,413.72,586.01,399.68z M620.34,388.03v-3.64c0-9.68-4.68-13.84-12.28-13.84     c-7.49,0-12.38,4.47-12.38,13.01v4.47H620.34z"/>
			<path class="st1" d="M640.42,397.18v-24.87c0-14.98,9.99-25.39,24.45-25.39c14.98,0,24.55,11.13,24.55,26.43v0.62h-10.2v-0.73     c0-8.64-4.58-16.44-14.36-16.44c-7.18,0-14.25,4.58-14.25,15.19v25.49c0,10.09,6.24,15.29,14.25,15.29     c10.72,0,14.36-9.05,14.36-17.06V395h10.2v0.73c0,15.61-9.26,26.95-24.55,26.95C650.41,422.67,640.42,412.16,640.42,397.18z"/>
			<path class="st1" d="M699.31,399.68v-14.57c0-14.98,7.7-22.79,18.94-22.79c8.95,0,14.25,5.2,15.92,8.95v-8.12h9.16v58.47h-9.16     v-8.01c-1.66,3.85-6.97,8.95-15.92,8.95C706.59,422.57,699.31,414.45,699.31,399.68z M721.36,414.45     c8.01,0,12.28-5.62,12.28-16.13v-12.38c0-10.2-4.58-15.5-12.28-15.5c-8.01,0-12.28,5.51-12.28,15.92v11.96     C709.09,408.94,713.25,414.45,721.36,414.45z"/>
			<path class="st1" d="M756.84,342.66h9.78v78.97h-9.78V342.66z"/>
			<path class="st1" d="M778.58,399.68v-13.94c0-14.36,8.12-23.31,22.06-23.31c14.05,0,21.95,8.53,21.95,23.31v0.21h-9.68v-0.21     c0-9.47-3.95-14.25-12.28-14.25c-8.64,0-12.38,4.58-12.38,15.5v12.8c0,8.53,4.06,13.94,12.38,13.94     c8.01,0,12.28-4.89,12.28-14.25v-0.31h9.68v0.31c0,14.36-7.91,23.2-21.95,23.2C786.7,422.67,778.58,413.72,778.58,399.68z"/>
		</g>
	</g>
</g>
</svg>